<?xml version="1.0" encoding="UTF-8" standalone="no"?>
<!DOCTYPE svg PUBLIC "-//W3C//DTD SVG 1.1//EN" "http://www.w3.org/Graphics/SVG/1.1/DTD/svg11.dtd">
<svg width="100%" height="100%" viewBox="0 0 563 681" version="1.1" xmlns="http://www.w3.org/2000/svg" xmlns:xlink="http://www.w3.org/1999/xlink" xml:space="preserve" xmlns:serif="http://www.serif.com/" style="fill-rule:evenodd;clip-rule:evenodd;stroke-miterlimit:2;">
    <g id="Artboard1" transform="matrix(0.549239,0,0,0.664704,0,0)">
        <rect x="0" y="0" width="1024" height="1024" style="fill:none;"/>
        <clipPath id="_clip1">
            <rect x="0" y="0" width="1024" height="1024"/>
        </clipPath>
        <g clip-path="url(#_clip1)">
            <g transform="matrix(1.8207,0,0,1.50443,-300.176,-87.3481)">
                <path d="M615.008,625.395L534.508,702.981L259.295,702.579C259.295,702.579 232.173,676.788 203.583,645.645C209.52,557.692 264.475,221.223 282.157,154.946C302.694,136.597 333.239,112.47 357.841,93.9C415.624,95.55 638.316,107.257 638.316,107.257L688.013,167.591L687.626,169.653L615.008,625.395Z" style="fill:white;"/>
                <path d="M615.008,625.395L534.508,702.981L259.295,702.579C259.295,702.579 232.173,676.788 203.583,645.645C209.52,557.692 264.475,221.223 282.157,154.946C302.694,136.597 333.239,112.47 357.841,93.9C415.624,95.55 638.316,107.257 638.316,107.257L688.013,167.591L687.626,169.653L615.008,625.395Z" style="fill:none;stroke:rgb(170,157,113);stroke-width:66px;"/>
            </g>
            <g transform="matrix(1.8207,0,0,1.50443,-300.176,-87.3481)">
                <path d="M615.006,625.396C578.306,661.973 534.508,702.981 534.508,702.981L259.295,702.579C259.295,702.579 232.173,676.788 203.583,645.645C209.52,557.692 266.745,209.072 282.157,154.946C301.929,140 357.841,93.9 357.841,93.9L638.316,107.257C638.316,107.257 661.933,135.076 688.013,167.591C672.328,260.436 645.628,424.64 615.006,625.396Z" style="fill:none;stroke:white;stroke-width:30px;stroke-linecap:square;stroke-miterlimit:1.5;"/>
                <path d="M615.006,625.396C578.306,661.973 534.508,702.981 534.508,702.981L259.295,702.579C259.295,702.579 232.173,676.788 203.583,645.645C209.52,557.692 266.745,209.072 282.157,154.946C301.929,140 357.841,93.9 357.841,93.9L638.316,107.257C638.316,107.257 661.933,135.076 688.013,167.591C672.328,260.436 645.628,424.64 615.006,625.396Z" style="fill:white;"/>
            </g>
            <g transform="matrix(1.8207,0,0,1.50443,-654.671,-320.671)">
                <path d="M842.006,571.043L809.709,780.487L729.21,858.071L453.997,857.669C453.997,857.669 426.875,831.879 398.286,800.736C404.222,712.783 458.441,375.744 476.86,310.037C496.112,292.489 552.543,248.99 552.543,248.99L833.018,262.348L882.716,322.682L851.567,510.731L684.941,518.997C684.941,518.997 679.126,516.101 667.999,510.415C680.162,445.824 715.687,320.666 725.569,294.399C665.462,342.065 611.439,466.792 607.11,508.883C598.186,509.192 589.215,508.685 589.215,508.685L589.073,511.581L572.953,511.016L551.418,573.424L580.092,573.159L579.729,575.835C579.729,575.835 590.768,575.889 594.728,575.726C585.255,621.806 615.053,754.047 648.437,788.51C647.911,756.454 652.714,603.94 658.078,572.183C664.607,569.813 676.527,565.376 676.527,565.376L842.006,571.043Z" style="fill:rgb(12,87,64);"/>
            </g>
        </g>
    </g>
</svg>
